PathFileType	4	(X/Y/Z)	c:/Users/goper/Files/vsCode/490R/osim_files/C15/C15_Fast_01.trc
DataRate	CameraRate	NumFrames	NumMarkers	Units                	OrigDataRate	OrigDataStartFrame	OrigNumFrames
250.00	250.00	10	36	mm	250.0	2089	2387
                Frame#	Time	LPSIS			LASIS			LTH1			LTH2			LTH3			LTH4			LLFE			LMFE			LSH1			LSH2			LSH3			LSH4			LLMAL			LMMAL			LCAL			LMTP5			LTOE			LMTP1			RPSIS			RASIS			RTH1			RTH2			RTH3			RTH4			RLFE			RMFE			RSH1			RSH2			RSH3			RSH4			RLMAL			RMMAL			RCAL			RMTP1			RTOE			RMTP5		
		X1	Y1	Z1	X2	Y2	Z2	X3	Y3	Z3	X4	Y4	Z4	X5	Y5	Z5	X6	Y6	Z6	X7	Y7	Z7	X8	Y8	Z8	X9	Y9	Z9	X10	Y10	Z10	X11	Y11	Z11	X12	Y12	Z12	X13	Y13	Z13	X14	Y14	Z14	X15	Y15	Z15	X16	Y16	Z16	X17	Y17	Z17	X18	Y18	Z18	X19	Y19	Z19	X20	Y20	Z20	X21	Y21	Z21	X22	Y22	Z22	X23	Y23	Z23	X24	Y24	Z24	X25	Y25	Z25	X26	Y26	Z26	X27	Y27	Z27	X28	Y28	Z28	X29	Y29	Z29	X30	Y30	Z30	X31	Y31	Z31	X32	Y32	Z32	X33	Y33	Z33	X34	Y34	Z34	X35	Y35	Z35	X36	Y36	Z36

2089	8.35200	-3033.95068	1018.65070	259.40860	-3191.37817	996.18909	341.26962	-3038.55884	620.04773	391.70276	-3030.40967	575.38477	375.89655	-3088.74146	617.84088	386.55487	-3082.44995	573.70093	377.17593	-3024.75806	498.03094	354.96625	0.00000	0.00000	0.00000	-2933.01514	411.09048	363.39838	-2917.02808	367.16504	363.52509	-2988.93652	387.19470	363.95563	-2966.77466	346.92737	365.24072	-2859.90820	111.98190	294.11652	-2886.90967	135.33530	206.59029	-2792.15063	92.53384	249.37767	-2968.53320	48.10693	317.96219	-3028.10059	67.11156	256.21777	-2987.65283	44.33582	198.00061	0.00000	0.00000	0.00000	-3208.49780	991.66290	93.51822	-3246.97461	628.04266	24.69541	0.00000	0.00000	0.00000	-3300.39209	647.36139	43.97649	-3310.70532	602.00018	44.88578	-3304.62329	505.63504	67.87424	-3294.54712	482.87250	186.05301	0.00000	0.00000	0.00000	0.00000	0.00000	0.00000	-3330.13867	402.41589	47.60161	-3340.06470	360.75180	42.65635	-3441.45996	115.21921	98.96715	-3455.68408	152.20850	185.57028	0.00000	0.00000	0.00000	-3585.30127	144.76218	181.13774	-3601.07812	175.64970	126.38658	-3567.82520	112.39161	69.16007
2090	8.35600	-3038.63403	1017.93860	258.85178	-3195.85010	995.52539	341.19379	-3042.03271	619.89050	391.57907	-3033.89624	575.07220	375.72543	-3092.37427	617.52832	386.00381	-3085.83447	573.21558	377.22308	-3029.19263	497.58292	355.13367	0.00000	0.00000	0.00000	-2935.82690	411.38669	363.34961	-2919.23877	367.57382	363.32971	-2991.46533	387.00400	363.89175	-2968.98486	346.94061	365.09180	-2860.68774	112.71853	294.29321	-2887.61572	135.95303	206.66980	0.00000	0.00000	0.00000	-2968.55688	48.05357	317.98639	-3029.03638	67.50473	256.85394	-2987.73145	44.40169	198.03746	0.00000	0.00000	0.00000	-3213.49170	990.96942	93.43620	-3252.46582	627.61682	24.55421	0.00000	0.00000	0.00000	-3305.90283	646.96228	43.62622	-3316.13721	601.49945	44.81993	-3309.83838	505.11896	68.02457	-3299.63428	482.38608	186.17212	0.00000	0.00000	0.00000	0.00000	0.00000	0.00000	-3335.73706	401.99332	47.96051	-3345.91968	360.46716	43.09225	-3448.22412	115.09694	99.44322	-3461.79248	152.16693	186.10567	0.00000	0.00000	0.00000	0.00000	0.00000	0.00000	-3607.14355	176.80659	127.82168	-3574.94312	113.27335	70.38396
2091	8.36000	-3043.39185	1017.23688	258.34579	-3200.46509	994.88525	341.06393	-3044.31787	618.61328	389.21365	-3037.41724	574.77307	375.54327	-3096.68042	617.21967	387.21509	-3089.33667	572.74805	377.23013	-3033.82178	497.82715	356.69708	-3042.88477	480.34070	237.85733	-2938.68237	411.66306	363.26501	-2921.89453	367.77826	363.48495	-2994.27808	386.90250	363.85889	-2971.33325	346.91196	365.09543	-2861.22656	113.57957	294.39398	-2888.35254	136.54445	206.75533	-2793.01855	94.77840	249.52933	-2968.55933	47.98902	318.03433	-3029.15723	67.49349	256.92322	-2987.43604	44.00412	197.75945	0.00000	0.00000	0.00000	-3218.73145	990.37811	93.38879	-3257.86963	627.10034	24.50554	0.00000	0.00000	0.00000	-3311.30615	646.53174	43.32906	-3321.60229	601.06274	44.73985	-3315.31055	504.77594	68.24776	-3305.01562	481.98840	186.32526	0.00000	0.00000	0.00000	0.00000	0.00000	0.00000	-3341.39038	401.57089	48.29958	-3351.55469	360.04077	43.47934	-3454.41016	114.81492	99.98052	-3467.50195	151.97971	186.69873	0.00000	0.00000	0.00000	0.00000	0.00000	0.00000	-3612.74780	177.43240	129.00993	-3581.22803	113.60509	71.48952
2092	8.36400	-3046.60962	1017.24829	256.55402	-3205.04053	994.17767	340.96710	-3049.38892	619.21106	391.09891	0.00000	0.00000	0.00000	-3098.81055	616.58472	385.83228	-3092.95190	572.24554	377.23315	-3037.41089	497.48233	356.69827	-3039.72559	482.22382	234.66389	-2941.75415	411.97815	363.26630	-2924.43945	368.33267	363.32388	-2997.02637	386.72250	363.82236	-2973.84424	346.83020	365.07089	-2861.80762	114.42950	294.51526	-2889.13208	137.32317	206.84938	-2793.52710	96.08228	249.73724	-2968.58960	47.94405	318.06546	-3029.27661	67.46400	256.99075	-2987.82056	44.53016	198.16080	0.00000	0.00000	0.00000	-3223.70874	989.71332	93.21385	-3263.50293	626.77234	24.43186	0.00000	0.00000	0.00000	-3316.93164	646.21973	43.08732	-3327.18823	600.74493	44.71305	-3321.13867	504.66299	68.52498	-3310.61084	481.62952	186.51248	0.00000	0.00000	0.00000	0.00000	0.00000	0.00000	-3347.09155	401.12775	48.54618	-3356.28491	358.84100	43.21478	-3460.00952	114.29512	100.55460	-3472.80542	151.57489	187.26314	-3466.13672	40.59166	172.35216	0.00000	0.00000	0.00000	-3617.95386	177.51189	129.93295	-3586.94849	113.46271	72.44458
2093	8.36800	-3052.96875	1015.90594	257.54700	-3209.72729	993.50916	340.82324	-3053.23828	618.85120	390.92029	0.00000	0.00000	0.00000	-3104.29932	616.27136	387.02423	-3096.74121	571.75934	377.15976	-3041.13574	497.09973	356.68051	-3043.74121	482.23846	233.73357	-2944.83203	412.24603	363.21249	-2927.23511	368.74454	363.33737	-2999.62476	386.43127	363.63742	-2976.49487	346.83609	365.05673	-2862.54883	115.42020	294.70255	-2889.85620	138.02603	206.98637	-2793.98071	97.35236	249.74342	-2968.63232	47.88311	318.09125	-3029.40796	67.42257	257.04630	-2987.91943	44.62571	198.21715	0.00000	0.00000	0.00000	-3228.95093	989.12909	93.05723	-3269.13452	626.43933	24.43121	0.00000	0.00000	0.00000	-3322.56665	645.97400	42.88131	-3332.83594	600.49365	44.71928	-3327.01807	504.56717	68.86488	-3316.38428	481.36697	186.65990	0.00000	0.00000	0.00000	0.00000	0.00000	0.00000	-3352.89844	400.68591	48.75029	-3362.96997	359.16122	44.04213	-3464.98364	113.47745	101.16685	-3477.64502	150.99823	187.82077	-3470.91675	39.96548	173.01663	0.00000	0.00000	0.00000	-3622.71265	176.95871	130.63237	-3591.94897	112.63416	73.31131
2094	8.37200	-3057.88379	1015.28534	257.08652	-3212.39087	992.28455	340.95709	0.00000	0.00000	0.00000	-3048.74731	573.73999	375.09818	-3107.49683	615.44415	386.22433	-3100.64185	571.22650	377.04404	-3044.92065	496.68143	356.64069	0.00000	0.00000	0.00000	-2948.14600	412.51346	363.24692	-2930.09521	369.15845	363.37674	-3002.97412	386.27664	363.72247	-2979.15796	346.86716	364.99448	-2863.13794	116.32522	294.87793	-2890.78418	138.79422	207.15182	0.00000	0.00000	0.00000	-2968.72656	47.86780	318.14359	-3029.50659	67.36497	257.12534	-2987.96680	44.71328	198.30328	0.00000	0.00000	0.00000	-3233.94556	988.47656	92.85653	-3274.92578	626.19397	24.44779	0.00000	0.00000	0.00000	-3328.19678	645.77258	42.76567	-3338.66333	600.35034	44.75377	-3333.08643	504.59030	69.17432	-3322.35571	481.22986	186.84093	0.00000	0.00000	0.00000	0.00000	0.00000	0.00000	-3358.71216	400.18500	48.96983	-3368.62891	358.63989	44.32933	-3469.48096	112.54174	101.77678	-3482.26685	150.14096	188.45708	0.00000	0.00000	0.00000	-3611.01514	145.37772	185.99596	-3627.23071	175.89691	131.19760	-3596.36816	111.36958	74.11571
2095	8.37600	-3058.54858	1016.12964	254.95898	-3219.30566	992.16840	340.42355	0.00000	0.00000	0.00000	0.00000	0.00000	0.00000	-3112.39502	615.20636	386.72729	-3104.60986	570.65826	376.95468	-3047.03223	495.52979	354.62485	-3051.52100	475.53979	238.41841	-2951.47021	412.73947	363.22745	-2933.07544	369.44077	363.55624	-3006.18115	386.08231	363.67963	-2982.03027	346.88113	364.95874	-2863.83618	117.35226	295.08865	-2891.56104	139.50723	207.26306	0.00000	0.00000	0.00000	-2968.84937	47.86714	318.15674	-3028.74438	66.82063	256.63843	-2988.03540	44.78794	198.36066	0.00000	0.00000	0.00000	-3239.16138	987.91107	92.69019	-3280.68384	625.90948	24.47664	0.00000	0.00000	0.00000	-3333.97729	645.69452	42.65579	-3344.55688	600.28979	44.77701	-3339.31055	504.69400	69.43305	-3328.55640	481.23386	187.05574	0.00000	0.00000	0.00000	0.00000	0.00000	0.00000	-3364.55225	399.69498	49.22506	-3374.17920	358.04694	44.60661	-3473.34399	111.34986	102.47893	-3486.34814	149.06963	189.06248	-3433.62695	54.78223	155.43477	-3614.84399	143.90532	186.60408	-3631.27588	174.22603	131.66452	-3600.16138	109.63285	74.75965
2096	8.38000	0.00000	0.00000	0.00000	-3224.17139	991.48297	340.27304	-3065.55103	617.56342	390.33957	-3056.77441	572.74420	374.56079	-3115.80200	614.44934	385.31564	-3108.74731	570.14069	376.79706	-3051.56299	495.19742	354.87140	-3055.57812	474.95786	238.38924	-2954.89380	413.04175	363.20651	-2936.13843	369.91541	363.56702	-3009.12964	385.86798	363.52243	-2985.24072	346.94656	365.14835	-2863.93774	118.26569	294.91037	-2892.47388	140.35921	207.44005	-2795.64258	101.66656	250.29207	-2968.94946	47.86731	318.20206	-3028.84839	66.76428	256.72134	-2987.73779	44.39080	198.13013	0.00000	0.00000	0.00000	-3244.23169	987.31055	92.44117	-3286.54272	625.70428	24.54764	0.00000	0.00000	0.00000	-3339.72339	645.66248	42.63320	-3350.47388	600.29187	44.87127	-3345.49512	504.73355	69.69762	-3336.25952	481.91760	187.94249	0.00000	0.00000	0.00000	0.00000	0.00000	0.00000	-3370.35107	399.20615	49.52549	-3379.85938	357.58301	44.95553	-3476.86597	110.05865	103.09478	-3490.21606	147.82430	189.73544	0.00000	0.00000	0.00000	-3618.51489	141.97238	187.04688	-3635.05127	172.10616	132.03708	-3603.56519	107.54646	75.33955
2097	8.38400	0.00000	0.00000	0.00000	-3228.99048	990.75830	340.05545	0.00000	0.00000	0.00000	-3061.08154	572.32806	374.40262	-3119.96191	613.74261	385.64545	-3113.68799	570.08014	376.73697	-3055.67114	494.75479	354.78876	0.00000	0.00000	0.00000	-2958.42505	413.36111	363.20917	-2939.33569	370.33923	363.58072	-3012.47729	385.70621	363.51306	-2988.32104	347.02283	365.20105	-2865.30908	119.41337	295.45850	-2893.31274	141.15094	207.58881	-2796.33643	103.26553	250.62398	-2969.06226	47.88285	318.22757	-3028.40112	66.65240	256.75525	-2988.21118	44.99252	198.53107	0.00000	0.00000	0.00000	-3249.52295	986.72040	92.20635	-3292.45923	625.55042	24.64562	0.00000	0.00000	0.00000	-3345.65845	645.75018	42.61166	-3356.49390	600.32013	44.98362	-3351.74683	504.78308	69.93150	-3341.11963	481.56555	187.57744	0.00000	0.00000	0.00000	0.00000	0.00000	0.00000	-3376.03296	398.64142	49.88604	-3384.64795	356.64038	44.61924	-3479.76855	108.92217	103.74087	-3493.76807	146.47127	190.27600	0.00000	0.00000	0.00000	-3621.81738	139.39485	187.45262	-3638.56421	169.58702	132.30710	-3606.25000	105.07434	75.90829
2098	8.38800	0.00000	0.00000	0.00000	-3233.89331	990.05182	339.76187	-3074.20142	616.48822	389.71335	0.00000	0.00000	0.00000	-3124.48901	613.35028	384.85544	-3117.23315	569.05927	376.44785	-3059.85669	494.26886	354.65802	-3064.21387	479.06570	234.35350	-2962.07251	413.66217	363.24524	-2941.74463	370.90826	363.49509	-3016.04663	385.43399	363.61539	-2991.24951	347.06491	365.10223	-2866.06689	120.54366	295.64484	-2894.27710	142.01320	207.71130	0.00000	0.00000	0.00000	-2969.19458	47.88282	318.24738	-3028.59937	66.62907	256.85092	-2987.81226	44.51852	198.25426	0.00000	0.00000	0.00000	-3254.71436	986.10901	91.90702	-3298.45654	625.40137	24.78845	0.00000	0.00000	0.00000	-3351.49097	645.77875	42.61515	-3362.53857	600.37476	45.13876	-3357.90869	504.78009	70.21893	-3347.31812	481.70432	187.80247	0.00000	0.00000	0.00000	0.00000	0.00000	0.00000	-3381.76758	398.14139	50.30992	-3390.62646	356.29776	45.72366	-3482.24048	107.81193	104.38621	-3497.12646	144.97386	190.83423	0.00000	0.00000	0.00000	-3624.57666	136.26871	187.86131	-3641.82642	166.56348	132.67592	-3608.63330	102.50859	76.33237
